<?xml version="1.0" encoding="iso-8859-1"?><!-- Generator: Adobe Illustrator 21.1.0, SVG Export Plug-In . SVG Version: 6.00 Build 0)  --><svg xmlns="http://www.w3.org/2000/svg" xmlns:xlink="http://www.w3.org/1999/xlink" viewBox="0 0 64 64" width="100px" height="100px"><g><path d="M22.066,25c0-2.752-2.24-4.992-4.992-4.992s-4.992,2.24-4.992,4.992c0,2.752,2.24,4.992,4.992,4.992S22.066,27.752,22.066,25z M17.074,28.008c-1.664,0-3.008-1.344-3.008-3.008c0-1.664,1.344-3.008,3.008-3.008s3.008,1.344,3.008,3.008C20.082,26.664,18.738,28.008,17.074,28.008z"/><path d="M16,33v2c0,0.553,0.4,1,1,1c0.6,0,1-0.447,1-1v-2c0-0.553-0.4-1-1-1C16.4,32,16,32.447,16,33z"/><path d="M17,18c0.6,0,1-0.447,1-1v-2c0-0.553-0.4-1-1-1c-0.6,0-1,0.447-1,1v2C16,17.552,16.4,18,17,18z"/><path d="M24,25c0,0.6,0.447,1,1,1h2c0.553,0,1-0.4,1-1c0-0.6-0.447-1-1-1h-2C24.447,24,24,24.4,24,25z"/><path d="M7,26h2c0.553,0,1-0.4,1-1c0-0.6-0.447-1-1-1H7c-0.553,0-1,0.4-1,1C6,25.6,6.447,26,7,26z"/><path d="M21.134,34.16c0.187,0.324,0.521,0.502,0.867,0.502c0.129,0.023,0.326-0.036,0.499-0.136c0.52-0.3,0.642-0.887,0.366-1.366l-1-1.732c-0.276-0.479-0.846-0.666-1.366-0.366c-0.52,0.3-0.642,0.887-0.366,1.366L21.134,34.16z"/><path d="M12.134,18.571c0.187,0.324,0.521,0.502,0.867,0.502c0.129,0.023,0.326-0.036,0.499-0.136c0.52-0.3,0.642-0.887,0.366-1.366l-1-1.732c-0.276-0.479-0.846-0.666-1.366-0.366c-0.52,0.3-0.642,0.887-0.366,1.366L12.134,18.571z"/><path d="M23.062,21.5c0.2,0.346,0.523,0.506,0.883,0.529c0.178,0.013,0.323-0.071,0.483-0.163l1.732-1c0.479-0.276,0.666-0.846,0.366-1.366c-0.3-0.52-0.887-0.642-1.366-0.366l-1.732,1C22.95,20.41,22.762,20.98,23.062,21.5z"/><path d="M10.937,28.5c-0.3-0.52-0.887-0.642-1.366-0.366l-1.732,1C7.361,29.41,7.173,29.98,7.473,30.5c0.2,0.346,0.523,0.506,0.883,0.529c0.178,0.013,0.323-0.071,0.483-0.163l1.732-1C11.05,29.59,11.237,29.02,10.937,28.5z"/><path d="M23.428,29.867l1.732,1c0.16,0.092,0.305,0.176,0.483,0.163c0.36-0.023,0.683-0.183,0.883-0.529c0.3-0.52,0.113-1.09-0.366-1.366l-1.732-1c-0.479-0.276-1.066-0.154-1.366,0.366C22.762,29.02,22.95,29.59,23.428,29.867z"/><path d="M7.839,20.867l1.732,1c0.16,0.092,0.305,0.176,0.483,0.163c0.36-0.023,0.683-0.183,0.883-0.529c0.3-0.52,0.113-1.09-0.366-1.366l-1.732-1c-0.479-0.276-1.066-0.154-1.366,0.366C7.173,20.02,7.361,20.59,7.839,20.867z"/><path d="M20.502,18.938c0.173,0.1,0.37,0.159,0.499,0.136c0.347,0,0.683-0.183,0.867-0.502l1-1.732c0.276-0.479,0.154-1.066-0.366-1.366c-0.52-0.3-1.09-0.113-1.366,0.366l-1,1.732C19.859,18.05,19.982,18.638,20.502,18.938z"/><path d="M12.867,34.161l1-1.732c0.276-0.479,0.154-1.066-0.366-1.366c-0.52-0.3-1.09-0.113-1.366,0.366l-1,1.732c-0.276,0.479-0.154,1.066,0.366,1.366c0.173,0.1,0.37,0.159,0.499,0.136C12.346,34.662,12.682,34.48,12.867,34.161z"/><path d="M58.981,50H32.414l14.879-14.879c0.377-0.379,1.036-0.379,1.414,0l9.586,9.586c0.391,0.391,1.023,0.391,1.414,0s0.391-1.023,0-1.414l-9.585-9.586c-1.134-1.133-3.11-1.133-4.243,0l-6.386,6.386L36.1,36.7c-1.1-1.1-3.1-1.1-4.2,0L18.6,50h-5.558C12.417,50,12,50.4,12,51c0,0.6,0.521,1,1.042,1h45.939c0.521,0,1.042-0.4,1.042-1C60.023,50.4,59.502,50,58.981,50z M21.4,50l11.9-11.9c0.4-0.4,1-0.4,1.4,0l3.393,3.393L29.586,50H21.4z"/><path d="M9,50H5c-0.6,0-1,0.4-1,1c0,0.6,0.4,1,1,1h4c0.6,0,1-0.4,1-1C10,50.4,9.6,50,9,50z"/><path d="M61,8H3c-1.654,0-3,1.346-3,3v42c0,1.654,1.346,3,3,3h58c1.654,0,3-1.346,3-3V11C64,9.346,62.654,8,61,8z M62,53c0,0.552-0.449,1-1,1H3c-0.551,0-1-0.448-1-1V11c0-0.552,0.449-1,1-1h58c0.551,0,1,0.448,1,1V53z"/></g></svg>